<?xml version="1.0" encoding="utf-8"?>
<!-- Generator: Adobe Illustrator 15.0.2, SVG Export Plug-In . SVG Version: 6.00 Build 0)  -->
<!DOCTYPE svg PUBLIC "-//W3C//DTD SVG 1.1//EN" "http://www.w3.org/Graphics/SVG/1.1/DTD/svg11.dtd">
<svg version="1.1" id="Layer_1" xmlns="http://www.w3.org/2000/svg" xmlns:xlink="http://www.w3.org/1999/xlink" x="0px" y="0px"
	 width="372.442px" height="161.314px" viewBox="36.677 28.483 372.442 161.314"
	 enable-background="new 36.677 28.483 372.442 161.314" xml:space="preserve">
<g>
	<path fill="#FFFFFF" d="M275.366,143.873c-0.421-2.58-2.76-5.201-5.777-5.201c-3.736,0-7.043,2.04-7.043,7.392
		c0,4.966,3.969,7.916,7.443,7.916c2.617,0,5.141-1.336,6.158-2.868l0.679,0.228c-1.573,2.363-4.416,4.04-8.024,4.04
		c-5.154,0-9.381-3.507-9.381-8.098c0-5.987,4.268-9.474,9.442-9.474c1.022,0,1.866,0.118,2.658,0.268
		c1.254,0.277,2.221,0.565,2.857,0.565c0.575,0,1.089-0.072,1.408-0.164c0,0.216-0.082,0.411-0.082,0.797
		c0,0.668,0.098,3.295,0.328,4.602h-0.667V143.873z"/>
	<path fill="#FFFFFF" d="M289.831,154.103c-4.883,0-7.834-4.41-7.834-8.225c0-5.166,3.964-7.206,6.56-7.206
		c5.459,0,7.536,4.404,7.536,7.617C296.093,152.242,293.014,154.103,289.831,154.103z M289.045,155.378
		c5.942,0,10.157-3.589,10.157-8.785c0-4.868-4.235-8.785-10.157-8.785c-5.917,0-10.162,3.917-10.162,8.785
		C278.883,151.789,283.107,155.378,289.045,155.378z"/>
	<path fill="#FFFFFF" d="M303.598,140.132c0-1.244-0.313-1.46-1.563-1.46h-0.699v-0.576c1.29,0.082,2.632,0.123,3.813,0.123
		c1.188,0,2.528-0.041,3.63-0.123v0.576h-0.679c-1.275,0-1.595,0.216-1.595,1.46v8.893c0,3.032,1.758,4.955,5.517,4.955
		c3.079,0,5.387-1.161,5.387-4.287v-9.715c0-0.854-0.18-1.306-1.547-1.306h-0.781v-0.576c1.105,0.082,2.098,0.123,3.161,0.123
		c0.972,0,1.887-0.041,2.714-0.123v0.576h-0.657c-1.337,0-1.526,0.452-1.526,1.306v9.047c0,4.164-1.912,6.354-8.385,6.354
		c-4.626,0-6.79-1.852-6.79-5.772V140.132L303.598,140.132z"/>
	<path fill="#FFFFFF" d="M324.838,139.941l-0.822-0.781c-0.422-0.354-0.616-0.487-1.125-0.487h-0.663v-0.576
		c0.807,0.052,1.566,0.123,2.385,0.123c0.761,0,1.588-0.071,2.37-0.123l12.095,12.502h0.062v-10.62c0-0.854-0.216-1.306-1.552-1.306
		h-0.78v-0.576c0.977,0.082,1.974,0.123,2.908,0.123c0.956,0,1.934-0.041,2.931-0.123v0.576h-0.791
		c-1.326,0-1.521,0.452-1.521,1.306v14.701c0,0.452,0,0.699-0.145,0.699c-0.154,0-0.329-0.149-1.233-1.09l-12.861-13.159h-0.065
		v12.09c0,0.869,0.216,1.315,1.547,1.315h0.792v0.57c-0.998-0.077-1.979-0.123-2.931-0.123c-0.937,0-1.907,0.046-2.931,0.123v-0.57
		h0.813c1.336,0,1.521-0.446,1.521-1.315v-13.278H324.838z"/>
	<path fill="#FFFFFF" d="M348.647,154.535h0.669c1.278,0.021,1.645-0.247,1.604-1.471v-13.838h-2.364
		c-3.454,0-4.421,1.825-4.421,3.362h-0.684c0.262-1.398,0.318-3.43,0.375-4.493c2.555,0.123,5.665,0.123,8.533,0.123
		c2.786,0,5.747,0,8.513-0.123c-0.175,1.443-0.216,2.602-0.216,3.454c0,0.35,0.01,0.688,0.041,1.039h-0.74v-0.516
		c0-2.185-1.146-2.848-3.712-2.848h-2.426v13.838c-0.058,1.224,0.298,1.491,1.583,1.471h0.674v0.57
		c-1.275-0.077-2.617-0.123-3.604-0.123c-1.214,0-2.55,0.046-3.824,0.123V154.535z"/>
	<path fill="#FFFFFF" d="M367.544,154.535h1.069c1.295,0,1.607-0.247,1.607-1.471v-5.428l-5.771-7.114
		c-0.848-1.09-1.671-1.851-3.089-1.851v-0.576c1.249,0.082,2.522,0.123,3.818,0.123c1.353,0,2.729-0.041,4.087-0.123v0.576
		c-0.674,0-1.918,0.057-1.918,0.843c0,0.298,0.351,0.715,1.729,2.564l3.269,4.374l4.164-5.237c0.611-0.791,0.997-1.301,0.997-1.718
		c0-0.826-1.397-0.826-2.082-0.826v-0.576c1.105,0.082,2.164,0.123,3.295,0.123c0.858,0,1.779-0.041,2.627-0.123v0.576
		c-1.301,0-2.103,0.826-3.037,2.005l-5.191,6.425v5.963c0,1.224,0.318,1.471,1.583,1.471h1.085v0.57
		c-1.126-0.077-2.396-0.123-4.241-0.123c-1.295,0-2.646,0.046-3.999,0.123L367.544,154.535L367.544,154.535z"/>
	<path fill="#FFFFFF" d="M396.978,154.946v-2.951l5.84,1.179l-0.699-2.545l7.001-4.95l-2.55-1.172l1.188-3.983l-3.604,0.668
		l-0.719-2.128l-3.893,3.711l1.866-7.803l-2.483,1.202c0,0-2.174-4.076-2.257-4.256c-0.092,0.18-2.251,4.256-2.251,4.256
		l-2.509-1.202l1.866,7.803l-3.86-3.711l-0.74,2.128l-3.588-0.668l1.167,3.983l-2.545,1.172l7.001,4.95l-0.704,2.545l5.901-1.179
		l-0.017,2.951H396.978z"/>
	<g>
		<path fill="#FFFFFF" d="M176.038,94.999c0-21.361-15.216-30.043-28.473-30.043c-15.344,0-28.606,11.342-28.606,30.752
			c0,21.363,15.915,30.051,28.606,30.051C161.805,125.759,176.038,114.424,176.038,94.999z M129.104,90.529
			c0-19.788,13.262-21.962,17.74-21.962c13.023,0,19.05,14.362,19.05,29.444c0,19.78-9.885,21.938-15.439,21.938
			C136.342,119.95,129.104,102.958,129.104,90.529z"/>
		<path fill="#FFFFFF" d="M184.993,81.598v32.338c0,6.267-1.578,7.495-5.665,7.495h-2.19v2.879c3.626-0.35,8.338-0.597,12.902-0.597
			c4.611,0,9.319,0.247,16.063,0.597v-2.879h-5.305c-4.097,0-5.665-1.229-5.665-7.495V86.425
			c0.468-3.375,9.885-12.787,11.818-12.787c1.213,0,1.336,1.802,1.336,2.66c0,3.136,1.326,4.1,4.821,4.1
			c4.082,0,5.326-1.098,5.326-4.958c0-4.698-1.244-9.05-6.667-9.05c-5.058,0-13.514,10.489-16.403,14.357h-0.231v-3.868
			c0-4.089,0.231-8.078,0.468-11.923h-3.737c-4.816,2.881-10.504,5.045-16.398,5.786v2.896h2.524
			C184.15,73.638,184.993,75.561,184.993,81.598z"/>
		<path fill="#FFFFFF" d="M303.988,48.064v65.871c0,6.267-1.604,7.495-5.687,7.495h-2.169v2.879
			c3.599-0.35,8.317-0.597,12.902-0.597s9.294,0.235,13.406,0.597l0,0c0.024,0,0.024,0,0.024,0h0.017l0,0
			c4.205-0.252,8.297-0.597,12.882-0.597s8.697,0.359,12.901,0.597l0.021-2.879h-2.189c-4.092,0-5.659-1.229-5.659-7.495V93.194
			l17.61,19.174c3.265,3.619,5.176,5.911,5.176,6.878c0,2.186-1.777,2.186-3.845,2.186v2.879c4.452-0.236,7.824-0.597,11.823-0.597
			c4.112,0,7.592,0.359,12.178,0.597v-2.879c-4.098,0-5.074-0.622-13.392-9.798l-20.135-22.314l14.577-13.758
			c6.153-5.783,7.846-6.284,11.223-6.284h2.651v-2.887c-3.73,0.252-7.464,0.617-11.556,0.617c-4.225,0-7.269-0.365-11-0.617v2.887
			h1.233c1.548,0.123,3.352,0.604,3.352,2.544c0,1.558-1.566,3.012-4.349,5.665l-15.55,15.21V42.385c0-2.912,0-6.513,0.359-9.772
			h-2.781c-4.327,2.403-11.205,4.585-16.037,5.428v2.172h1.448c4.937,0,6.868,1.206,6.868,7.852v65.871
			c0,6.267-1.573,7.495-5.665,7.495h-2.147h-0.041h-2.673c-4.093,0-5.665-1.229-5.665-7.495V42.385c0-2.912,0-6.513,0.358-9.772
			h-2.78c-4.344,2.403-11.2,4.585-16.032,5.428v2.172h1.465C302.05,40.212,303.988,41.417,303.988,48.064z"/>
		<path fill="#FFFFFF" d="M395.662,157.526c0.318-0.221,0.473-0.339,0.473-0.339C395.98,157.301,395.831,157.403,395.662,157.526z"
			/>
		<path fill="#FFFFFF" d="M269.609,167.386c-33.608-5.284-46.151-9.798-62.656-11.699c9.026-15.858,16.269-33.516,24.354-65.504
			c1.086-0.239,3.888-0.57,7.43-0.907c-0.34,2.036-0.557,4.182-0.557,6.433c0,21.363,15.945,30.051,28.611,30.051
			c14.26,0,28.488-11.335,28.488-30.76c0-21.361-15.21-30.043-28.488-30.043c-12.162,0-23.008,7.168-26.977,19.829
			c-3.156,0.057-5.747,0.077-7.248,0.013C242.96,42.59,247.432,33.42,261.84,33.42c4.529,0,12.507,6.194,12.507,6.194l1.244-2.234
			c-3.9-3.96-10.819-7.461-14.233-7.929c-20.587-2.753-29.12,13.139-38.954,55.93h-8.985l-3.279,4.506
			c6.405,1.139,4.595,1.421,11.01,0.558c-6.836,28.282-12.1,47.167-20.69,64.604l-1.465-0.154
			c-20.903-1.778-34.772-0.268-44.572,3.115l0.735,1.655c0,0,13.668-4.227,41.843-1.297c-7.587,12.796-17.143,23.298-28.711,26.042
			c-11.471,2.693-22.292-2.328-23.443-8.379l-3.12,0.781c3.205,12.192,18.613,14.383,28.437,12.28
			c10.602-2.231,22.129-6.977,34.662-29.742c12.44,1.778,27.039,5.968,44.86,10.527c74.623,19.169,117.423,9.165,145.978-12.354
			C391.529,160.467,358.302,181.316,269.609,167.386z M266.072,68.566c13.041,0,19.071,14.362,19.071,29.444
			c0,19.78-9.892,21.938-15.442,21.938c-14.115,0-21.384-16.992-21.384-29.421c0-0.735,0.077-1.403,0.118-2.08
			c7.067-0.563,14.003-1.043,15.89-1.103c0.643-0.568,3.716-3.57,3.716-3.57s-9.762,0.447-19.22,0.758
			C251.237,70.296,262.094,68.566,266.072,68.566z"/>
		<path fill="#FFFFFF" d="M119.409,28.484c-3.775,0.67-7.636,0.67-11.375,0.67c-3.863,0-7.724,0-11.607-0.67v4.035
			c7.96,0.668,7.96,2.822,7.96,10.491v49.648h-0.216L61.906,28.483c-4.218,0.67-8.417,0.67-12.599,0.67c-4.228,0-8.425,0-12.63-0.67
			v4.035c4.305,0,6.945,3.755,10.805,9.684v68.622c0,7.659,0,9.813-7.965,10.481v4.04c3.863-0.668,7.729-0.668,11.589-0.668
			c3.758,0,7.621,0,11.357,0.668v-4.04c-7.939-0.669-7.939-2.822-7.939-10.481V52.428h0.231l49.294,74.521h7.4V43.01
			c0-7.669,0-9.823,7.959-10.491L119.409,28.484L119.409,28.484z"/>
	</g>
</g>
</svg>
